<?xml version="1.0" standalone="no"?>
<!DOCTYPE svg PUBLIC "-//W3C//DTD SVG 20010904//EN"
 "http://www.w3.org/TR/2001/REC-SVG-20010904/DTD/svg10.dtd">
<svg version="1.0" xmlns="http://www.w3.org/2000/svg"
 width="820.000000pt" height="820.000000pt" viewBox="0 0 820.000000 820.000000"
 preserveAspectRatio="xMidYMid meet">
<metadata>
Created by potrace 1.11, written by Peter Selinger 2001-2013
</metadata>
<g transform="translate(0.000000,820.000000) scale(0.100000,-0.100000)"
fill="#000000" stroke="none">
<path d="M3750 8000 c-190 -110 -352 -204 -360 -209 -25 -16 -299 -174 -364
-210 -34 -18 -65 -37 -69 -41 -5 -4 33 -32 85 -62 84 -50 514 -298 598 -346
19 -11 103 -59 185 -107 83 -48 169 -98 192 -111 23 -13 111 -63 195 -112 84
-49 358 -207 608 -352 250 -144 527 -304 615 -355 88 -51 178 -103 200 -115
22 -12 81 -46 130 -75 304 -179 317 -186 341 -170 13 8 38 23 57 34 30 16 356
205 464 267 18 11 114 66 214 124 100 58 207 120 238 138 31 17 77 44 104 59
26 14 47 29 47 32 0 6 -18 17 -120 74 -30 16 -71 40 -90 52 -19 12 -55 33 -80
47 -85 48 -126 71 -350 200 -276 159 -533 309 -580 337 -19 11 -42 24 -50 28
-8 4 -107 61 -220 126 -113 66 -221 129 -240 140 -19 10 -109 62 -200 115 -91
52 -178 103 -195 112 -16 10 -129 75 -250 145 -121 70 -240 139 -265 152 -25
14 -70 40 -100 58 -30 18 -71 42 -90 53 -19 11 -94 54 -167 96 -73 42 -134 76
-135 76 -2 -1 -158 -91 -348 -200z"/>
<path d="M1690 6809 c-228 -132 -446 -259 -485 -280 -38 -22 -92 -54 -120 -70
-27 -16 -65 -37 -82 -46 -18 -9 -33 -19 -33 -23 0 -4 328 -197 435 -256 11 -6
135 -78 275 -159 140 -81 311 -180 380 -220 69 -40 215 -124 325 -187 110 -64
216 -125 235 -136 19 -11 359 -207 755 -436 405 -234 726 -414 734 -411 13 5
492 280 581 334 19 11 41 24 49 27 7 4 50 28 95 54 44 26 153 89 241 140 88
51 164 96 168 100 7 6 -86 64 -320 196 -23 13 -93 54 -155 90 -62 37 -131 77
-153 89 -22 12 -69 39 -105 60 -36 21 -86 49 -111 64 -25 14 -181 105 -347
201 -167 96 -310 180 -320 185 -9 6 -60 34 -112 64 -52 30 -159 92 -238 138
-78 46 -147 83 -152 83 -6 0 -10 5 -10 10 0 6 -4 10 -9 10 -5 0 -107 57 -227
126 -121 70 -232 134 -249 144 -16 9 -160 92 -318 184 -158 91 -293 166 -300
166 -7 0 -199 -109 -427 -241z"/>
<path d="M552 5003 l3 -668 255 -148 c140 -81 266 -153 280 -161 14 -7 97 -55
185 -106 88 -51 174 -101 190 -110 17 -9 87 -50 155 -90 69 -40 139 -81 156
-90 16 -10 149 -86 295 -170 145 -84 278 -161 294 -170 32 -18 135 -78 585
-338 157 -91 305 -176 330 -190 25 -13 50 -28 55 -32 6 -4 26 -17 45 -27 39
-22 154 -88 203 -116 18 -11 141 -82 274 -158 l241 -140 39 21 c21 12 54 31
73 42 88 51 299 174 340 197 87 50 265 152 300 173 19 11 118 68 218 126 206
119 199 107 95 162 -27 14 -77 42 -112 64 -36 21 -85 50 -110 64 -25 14 -58
32 -73 41 -74 44 -448 260 -492 285 -28 15 -118 67 -201 116 -82 48 -170 98
-195 112 -25 14 -187 107 -360 208 -173 100 -479 276 -680 392 -201 116 -377
219 -392 229 -15 10 -30 19 -32 19 -4 0 -545 309 -646 370 -8 5 -127 74 -265
153 -137 80 -376 218 -530 307 -154 89 -305 176 -335 193 -30 17 -71 40 -90
52 -19 12 -50 30 -68 39 l-32 17 2 -668z"/>
<path d="M7565 5624 c-44 -26 -96 -55 -115 -66 -49 -29 -192 -111 -211 -123
-10 -5 -46 -26 -81 -46 -34 -20 -92 -53 -128 -74 -36 -20 -85 -49 -110 -63
-25 -14 -56 -33 -70 -42 -14 -9 -30 -19 -35 -21 -9 -4 -330 -188 -365 -210 -8
-5 -82 -48 -165 -95 -82 -48 -224 -129 -315 -182 -91 -52 -183 -105 -205 -118
-22 -12 -219 -126 -437 -252 -284 -164 -394 -232 -385 -239 10 -8 205 -122
312 -183 17 -9 206 -119 422 -244 216 -124 398 -226 405 -226 7 0 76 37 153
81 77 45 158 91 180 104 54 30 467 269 535 309 30 18 152 88 270 156 197 113
268 154 388 224 l42 26 0 665 c0 366 -1 665 -2 665 -2 0 -39 -21 -83 -46z"/>
<path d="M550 2710 c0 -433 3 -670 10 -670 5 0 31 -13 57 -29 59 -35 341 -198
403 -233 25 -14 117 -67 205 -118 88 -51 216 -125 285 -165 69 -39 231 -133
361 -208 129 -75 241 -137 247 -137 7 0 56 26 110 57 53 31 138 80 187 108 50
29 151 87 225 130 206 120 435 252 533 307 48 28 89 53 91 57 3 5 -200 126
-472 281 -41 23 -145 84 -167 97 -11 7 -27 15 -35 20 -13 6 -282 160 -320 183
-22 13 -240 139 -280 162 -19 11 -150 87 -290 168 -140 81 -271 157 -290 167
-19 11 -147 85 -285 165 -137 80 -277 160 -310 178 -33 18 -67 39 -76 46 -8 8
-18 14 -22 14 -4 0 -41 20 -83 45 -41 25 -78 45 -80 45 -2 0 -4 -301 -4 -670z"/>
<path d="M6725 2851 c-6 -5 -30 -20 -55 -34 -25 -13 -261 -149 -525 -302 -264
-153 -498 -288 -520 -300 -22 -13 -80 -46 -130 -75 -49 -29 -106 -61 -125 -72
-19 -11 -102 -59 -185 -107 -82 -48 -316 -184 -520 -301 -203 -117 -383 -221
-400 -231 -16 -10 -37 -22 -45 -26 -8 -4 -86 -49 -173 -100 -88 -51 -161 -93
-163 -93 -2 0 -38 -21 -81 -46 -43 -25 -85 -49 -93 -54 -68 -39 -658 -381
-703 -408 -32 -19 -55 -38 -50 -42 8 -7 770 -447 863 -498 25 -14 57 -33 72
-43 14 -11 28 -19 31 -19 3 0 44 -23 91 -51 l86 -50 487 282 c269 155 504 291
523 302 19 11 49 28 65 38 17 10 41 24 55 32 14 7 117 66 228 131 112 64 218
125 235 135 27 15 172 99 227 131 8 5 71 41 140 81 69 40 142 82 162 93 29 17
39 30 51 71 20 66 120 395 157 515 56 182 241 785 245 800 2 8 20 67 39 130
20 63 36 116 36 118 0 5 -17 1 -25 -7z"/>
</g>
</svg>
