<svg xmlns="http://www.w3.org/2000/svg" xmlns:xlink="http://www.w3.org/1999/xlink" version="1.1" x="0px" y="0px" viewBox="0 0 100 100" enable-background="new 0 0 100 100" xml:space="preserve"><path d="M23.6,10.1H8.7c-3.3,0-6,2.7-6,6v67.5c0,3.3,2.7,6,6,6h14.9c3.3,0,6-2.7,6-6V16.1C29.5,12.8,26.9,10.1,23.6,10.1z M16,80.6  c-2.5,0-4.5-2-4.5-4.5c0-2.5,2-4.5,4.5-4.5s4.5,2,4.5,4.5C20.5,78.5,18.5,80.6,16,80.6z M25.9,63.1H6.4V25.7h19.6V63.1z"></path><path d="M53.9,10.1H39c-3.3,0-6,2.7-6,6v67.5c0,3.3,2.7,6,6,6h14.9c3.3,0,6-2.7,6-6V16.1C59.8,12.8,57.1,10.1,53.9,10.1z M46.4,80.6  c-2.5,0-4.5-2-4.5-4.5c0-2.5,2-4.5,4.5-4.5s4.5,2,4.5,4.5C50.9,78.5,48.9,80.6,46.4,80.6z M56.2,63.1H36.6V25.7h19.6V63.1z"></path><path d="M98.2,81.3l-8.8-66.9C89,11.1,86,8.8,82.8,9.3L68,11.2c-3.3,0.4-5.6,3.4-5.1,6.7l8.8,66.9c0.4,3.3,3.4,5.6,6.7,5.1l14.8-1.9  C96.4,87.5,98.7,84.5,98.2,81.3z M83.5,79.9c-2.5,0-4.5-2-4.5-4.5c0-2.5,2-4.5,4.5-4.5s4.5,2,4.5,4.5C88,77.9,86,79.9,83.5,79.9z   M72.6,64l-4.9-37.1l19.4-2.5L92,61.4L72.6,64z"></path></svg>